<svg width="96" height="96" viewBox="0 0 96 96" fill="none" xmlns="http://www.w3.org/2000/svg">
<g filter="url(#filter0_d_34_145)">
<rect x="8" y="4" width="80" height="80" rx="40" fill="url(#paint0_linear_34_145)"/>
<path d="M48 45.5594C46.0486 45.5617 44.1566 44.8876 42.6464 43.6517C41.1362 42.4158 40.101 40.6946 39.7172 38.7813C39.6866 38.5797 39.7002 38.3739 39.7571 38.1782C39.8139 37.9824 39.9126 37.8013 40.0464 37.6475C40.1801 37.4937 40.3458 37.3708 40.5317 37.2873C40.7177 37.2038 40.9196 37.1618 41.1235 37.1641C41.4585 37.1592 41.7842 37.2741 42.042 37.4881C42.2999 37.7021 42.4728 38.0011 42.5297 38.3313C42.7946 39.5954 43.4863 40.7298 44.4889 41.5441C45.4914 42.3584 46.7436 42.8028 48.0352 42.8028C49.3267 42.8028 50.5789 42.3584 51.5815 41.5441C52.584 40.7298 53.2758 39.5954 53.5407 38.3313C53.5976 38.0011 53.7705 37.7021 54.0283 37.4881C54.2861 37.2741 54.6119 37.1592 54.9469 37.1641C55.1507 37.1618 55.3527 37.2038 55.5386 37.2873C55.7246 37.3708 55.8902 37.4937 56.024 37.6475C56.1578 37.8013 56.2565 37.9824 56.3133 38.1782C56.3702 38.3739 56.3837 38.5797 56.3532 38.7813C55.9671 40.7065 54.9216 42.4369 53.3968 43.6741C51.8721 44.9114 49.9635 45.5781 48 45.5594Z" fill="white"/>
<path d="M60.5157 64.0938H35.4844C34.9122 64.0945 34.3458 63.9788 33.8197 63.7537C33.2936 63.5286 32.8188 63.1989 32.4242 62.7845C32.0295 62.3701 31.7233 61.8798 31.5242 61.3434C31.325 60.8069 31.237 60.2356 31.2657 59.6641L32.4047 35.4203C32.4519 34.3334 32.9171 33.3068 33.7032 32.5547C34.4893 31.8027 35.5355 31.3834 36.6235 31.3844H59.3766C60.4645 31.3834 61.5108 31.8027 62.2969 32.5547C63.083 33.3068 63.5482 34.3334 63.5953 35.4203L64.7344 59.6641C64.763 60.2356 64.6751 60.8069 64.4759 61.3434C64.2767 61.8798 63.9705 62.3701 63.5759 62.7845C63.1813 63.1989 62.7064 63.5286 62.1804 63.7537C61.6543 63.9788 61.0879 64.0945 60.5157 64.0938ZM36.6235 34.211C36.2505 34.211 35.8928 34.3591 35.6291 34.6228C35.3654 34.8866 35.2172 35.2443 35.2172 35.6172L34.0782 59.8047C34.0686 59.9952 34.0979 60.1857 34.1643 60.3645C34.2307 60.5433 34.3328 60.7067 34.4643 60.8449C34.5959 60.983 34.7541 61.0929 34.9295 61.1679C35.1049 61.2429 35.2937 61.2815 35.4844 61.2813H60.5157C60.7064 61.2815 60.8952 61.2429 61.0706 61.1679C61.2459 61.0929 61.4042 60.983 61.5357 60.8449C61.6673 60.7067 61.7694 60.5433 61.8357 60.3645C61.9021 60.1857 61.9314 59.9952 61.9219 59.8047L60.7828 35.561C60.7828 35.188 60.6347 34.8303 60.371 34.5666C60.1072 34.3029 59.7496 34.1547 59.3766 34.1547L36.6235 34.211Z" fill="white"/>
<path d="M56.4375 32.8047H53.625V30.3438C53.625 28.8519 53.0324 27.4212 51.9775 26.3663C50.9226 25.3114 49.4918 24.7188 48 24.7188C46.5082 24.7188 45.0774 25.3114 44.0225 26.3663C42.9676 27.4212 42.375 28.8519 42.375 30.3438V32.8047H39.5625V30.3438C39.5625 28.106 40.4514 25.9599 42.0338 24.3775C43.6161 22.7952 45.7622 21.9063 48 21.9062C50.2378 21.9062 52.3839 22.7952 53.9662 24.3775C55.5486 25.9599 56.4375 28.106 56.4375 30.3438V32.8047Z" fill="white"/>
</g>
<defs>
<filter id="filter0_d_34_145" x="0" y="0" width="96" height="96" filterUnits="userSpaceOnUse" color-interpolation-filters="sRGB">
<feFlood flood-opacity="0" result="BackgroundImageFix"/>
<feColorMatrix in="SourceAlpha" type="matrix" values="0 0 0 0 0 0 0 0 0 0 0 0 0 0 0 0 0 0 127 0" result="hardAlpha"/>
<feOffset dy="4"/>
<feGaussianBlur stdDeviation="4"/>
<feComposite in2="hardAlpha" operator="out"/>
<feColorMatrix type="matrix" values="0 0 0 0 0 0 0 0 0 0 0 0 0 0 0 0 0 0 0.2 0"/>
<feBlend mode="normal" in2="BackgroundImageFix" result="effect1_dropShadow_34_145"/>
<feBlend mode="normal" in="SourceGraphic" in2="effect1_dropShadow_34_145" result="shape"/>
</filter>
<linearGradient id="paint0_linear_34_145" x1="48" y1="4" x2="48" y2="84" gradientUnits="userSpaceOnUse">
<stop stop-color="#FF7A00"/>
<stop offset="1" stop-color="#FF004D"/>
</linearGradient>
</defs>
</svg>
